<svg width="88" height="68" viewBox="0 0 88 68" fill="none" xmlns="http://www.w3.org/2000/svg">
<path d="M24.0153 55.2157C24.0153 54.9257 25.9253 64.2157 29.2153 58.0457C30.2153 56.1857 26.9253 66.0457 26.9253 66.0457C26.9253 66.0457 23.6853 60.9257 24.0153 55.2157Z" fill="#231F20"/>
<path d="M67.8754 20.8656L62.8154 25.5456C62.2054 26.1156 61.6354 26.7256 61.0154 27.2856L54.4054 33.1756C53.4054 34.0356 52.4754 34.9556 51.5154 35.8356C50.9174 36.4268 50.2899 36.9876 49.6354 37.5156C49.2954 37.7656 48.9454 37.9956 48.6354 38.2256C48.3254 38.4556 47.8754 38.6456 47.5054 38.8556C47.1354 39.0656 47.0054 38.8556 47.2054 38.4356C47.5222 37.7349 47.9039 37.0653 48.3454 36.4356C49.4454 35.1856 50.7354 34.0956 51.9354 32.9056C53.1354 31.7156 54.3954 30.5856 55.6854 29.4656C57.2154 28.1156 58.6254 26.5156 60.0854 25.0256L64.9154 20.1056C65.9154 19.1056 66.9154 18.1056 67.8554 17.1056C69.3154 15.5456 70.8554 14.0056 72.1754 12.3756C73.1901 11.0988 74.1284 9.76313 74.9854 8.37559C75.1754 8.07559 75.3454 7.76559 75.5454 7.47559C75.8854 6.95559 76.1454 6.63559 76.4854 6.47559C76.8507 6.48233 77.215 6.51575 77.5754 6.57559C77.7854 6.57559 78.0054 6.57559 78.1854 6.57559C78.3654 6.57559 78.6954 6.77559 78.8354 7.19559C78.9046 7.45285 78.925 7.72082 78.8954 7.98559C78.8723 8.24266 78.7938 8.49168 78.6654 8.71559C77.1169 11.4184 75.1909 13.8866 72.9454 16.0456C71.3254 17.7056 69.6354 19.3056 67.9454 20.9256L67.8754 20.8656Z" fill="#231F20"/>
<path d="M51.0853 49.5857C52.3553 49.8557 53.5953 50.2057 54.8253 50.5857C55.2753 50.7157 55.7353 50.8157 56.1853 50.9757C57.7337 51.5592 59.2348 52.2613 60.6753 53.0757C61.3153 53.4457 61.9753 53.7657 62.6153 54.0757C63.0416 54.2943 63.4467 54.5521 63.8253 54.8457C64.1732 55.1953 64.4695 55.5926 64.7053 56.0257C64.8553 56.2957 64.6153 56.4657 64.1853 56.5757C63.6811 56.716 63.1533 56.7501 62.6353 56.6757C62.4289 56.6307 62.2345 56.5421 62.0653 56.4157L61.5453 56.0757L60.4353 55.4257L58.1553 54.1257C57.1715 53.6427 56.1344 53.2769 55.0653 53.0357C53.9053 52.6857 52.7253 52.3957 51.5353 52.1357C50.7953 51.9957 50.0553 51.8557 49.3053 51.7557L47.6053 51.5657C47.0353 51.5657 46.4653 51.4957 45.8953 51.4957C45.0169 51.5564 44.1444 51.6834 43.2853 51.8757C43.0953 51.8757 42.9053 51.9757 42.7153 52.0057C42.0053 52.0057 41.7153 51.8457 41.5653 51.1457C41.5653 50.9957 41.4653 50.8557 41.4353 50.7257C41.3494 50.2069 41.6427 49.6999 42.1353 49.5157C42.9267 49.1881 43.7695 49.002 44.6253 48.9657C45.4907 48.9007 46.3598 48.9007 47.2253 48.9657C48.5241 49.0606 49.8162 49.2309 51.0953 49.4757L51.0853 49.5857Z" fill="#231F20"/>
<path d="M58.175 32.1558L45.015 42.4758C43.415 43.7358 41.895 45.0658 40.285 46.3158C38.8267 47.3351 37.4852 48.5122 36.285 49.8258C35.9738 50.1526 35.6397 50.4567 35.285 50.7358C35.175 50.8358 35.155 50.8458 35.125 50.8558C35.0904 50.8846 35.0601 50.9183 35.035 50.9558C34.935 51.0858 34.815 51.2258 34.715 51.3758C34.285 51.9758 33.955 52.7158 33.535 53.3758C32.7108 54.8841 31.9924 56.4478 31.385 58.0558L31.145 58.6658L30.865 59.4458L30.135 61.3558C29.695 62.5858 29.295 63.8158 28.865 64.7458C28.5703 65.3882 28.1938 65.9898 27.745 66.5358C27.5782 66.7736 27.34 66.9522 27.065 67.0458H26.905C26.905 67.1758 26.905 67.0458 26.905 67.1158H26.825C26.7294 67.0852 26.6359 67.0484 26.545 67.0058C26.3635 66.916 26.1952 66.8016 26.045 66.6658C25.885 66.5358 25.755 66.4058 25.615 66.2858C25.4838 66.1355 25.3603 65.9786 25.245 65.8158C25.0102 65.4987 24.7996 65.1645 24.615 64.8158C24.3896 64.4394 24.1891 64.0485 24.015 63.6458C23.8684 63.1991 23.7084 62.7491 23.535 62.2958C23.335 61.6858 23.215 60.9558 23.015 60.2958L22.755 59.1958C22.655 58.8558 22.585 58.3658 22.535 58.1958L22.245 56.6758C22.1217 56.1773 22.0447 55.6684 22.015 55.1558L21.795 52.2358C21.7486 51.7773 21.7319 51.3164 21.745 50.8558C21.7418 50.4638 21.7084 50.0726 21.645 49.6858C21.645 49.4758 21.645 49.3758 21.645 49.2458C21.6477 49.0992 21.7007 48.958 21.795 48.8458C22.1819 48.4652 22.7821 48.4068 23.235 48.7058C24.1466 49.1969 24.9414 49.8791 25.565 50.7058C26.2901 51.6455 26.7865 52.7411 27.015 53.9058C27.105 54.4258 27.225 54.9058 27.265 55.4658V57.7758C27.265 57.9558 27.265 57.9058 27.265 57.9058C27.2234 58.0049 27.2234 58.1166 27.265 58.2158C27.325 58.3458 27.365 58.3458 27.495 58.2158L27.605 58.0658C27.605 58.0658 27.605 58.0658 27.655 57.9458L27.715 57.7558L27.955 56.9958C28.295 55.9958 28.655 54.9958 29.075 53.9958C29.325 53.3858 29.585 52.7758 29.865 52.1658C30.015 51.8558 30.155 51.5458 30.315 51.2358C30.475 50.9258 30.675 50.6358 30.865 50.3358C31.2774 49.7001 31.7352 49.0952 32.235 48.5258C32.4175 48.3469 32.6112 48.1799 32.815 48.0258L33.185 47.7358C33.4325 47.5323 33.6931 47.3452 33.965 47.1758C34.505 46.8258 35.075 46.5058 35.585 46.1758L37.015 44.7658L39.865 42.2158L52.405 31.1358L56.275 27.7158C57.575 26.5958 58.875 25.4758 60.165 24.3358C64.075 20.8958 67.995 17.4358 71.705 13.8358C73.135 12.4258 74.495 10.9758 75.825 9.50577C77.155 8.03577 78.435 6.50577 79.735 5.05577C80.295 4.38577 80.895 3.78577 81.515 3.17577C82.3169 2.34101 83.2246 1.61484 84.215 1.01577C84.5247 0.838169 84.8632 0.716319 85.215 0.65577C85.5475 0.622881 85.8825 0.622881 86.215 0.65577C86.485 0.65577 86.775 0.65577 86.965 0.65577C87.495 0.70577 87.455 2.44577 86.115 4.54577C85.635 5.34577 85.115 6.08577 84.595 6.85577L83.805 8.00577C83.535 8.38577 83.225 8.72577 82.935 9.08577C81.655 10.5191 80.375 11.9124 79.095 13.2658C77.795 14.6058 76.455 15.9258 75.095 17.2658L71.015 21.1258C66.855 24.9058 62.6184 28.6091 58.305 32.2358L58.175 32.1558Z" fill="#231F20"/>
<path d="M63.4252 18.9157C60.0918 20.9157 56.7585 22.9157 53.4252 24.9157C52.2152 25.6557 51.0752 26.4957 49.8652 27.2257L37.0752 34.9557C35.1652 36.0857 33.3152 37.3257 31.4952 38.5557C29.1594 40.1491 26.7245 41.592 24.2052 42.8757C23.4152 43.2657 23.3052 42.9357 23.6452 42.1357C24.1912 40.9043 24.957 39.7826 25.9052 38.8257L27.4952 37.3557L28.2952 36.6057L29.1552 35.9457C30.3018 35.0657 31.4618 34.2057 32.6352 33.3657C33.8152 32.5257 34.9852 31.6757 36.2252 30.9157C37.4652 30.1557 38.7152 29.3557 40.0152 28.6857C43.0652 26.9857 45.9552 24.7957 48.9352 22.8557C52.2152 20.7257 55.5352 18.6457 58.8352 16.5557L64.9552 12.7057C68.0252 10.7057 71.1552 8.84571 74.1552 6.80571C76.4852 5.22571 78.6952 3.54571 80.9952 1.95571C81.5052 1.60571 81.9952 1.23571 82.5152 0.955705C84.5152 -0.254295 85.5152 -0.164295 86.3152 0.395705C86.5145 0.51152 86.705 0.641873 86.8852 0.785705C87.1452 1.03571 87.1252 1.39571 86.8852 1.86571C86.6075 2.48697 86.206 3.04503 85.7052 3.50571C84.8152 4.41571 83.8252 5.1557 82.8552 5.99571C81.8852 6.83571 80.8552 7.60571 79.8552 8.40571C77.8014 10.0114 75.6543 11.494 73.4252 12.8457C70.1452 14.9457 66.7852 16.9657 63.4252 19.0457V18.9157Z" fill="#231F20"/>
<path d="M56.5551 53.1656C55.2999 52.7228 54.0172 52.362 52.7151 52.0856C52.2351 51.9656 51.7151 52.0156 51.2551 51.9156C50.4051 51.7256 49.5451 51.6556 48.6651 51.5256C47.7858 51.418 46.901 51.3612 46.0151 51.3556C45.2325 51.3606 44.4533 51.4613 43.6951 51.6556C42.7503 51.989 41.757 52.1646 40.7551 52.1756C40.4251 52.1756 40.2551 51.3256 40.3251 50.4756C40.3951 49.6256 40.7351 48.7456 41.3251 48.5856C43.514 48.0381 45.7939 47.9598 48.0151 48.3556C49.3451 48.5856 50.7351 48.4756 52.0851 48.6656C53.5663 48.8813 55.0276 49.2157 56.4551 49.6656C57.3351 49.9556 58.2051 50.2356 59.0551 50.5656C60.3551 51.0356 61.5851 51.6756 62.8451 52.2256C63.8505 52.6029 64.8293 53.0473 65.7751 53.5556C65.9651 53.6956 66.1751 53.8156 66.3551 53.9756C67.0051 54.6056 67.0751 54.9756 66.7951 55.5756C66.7464 55.7057 66.6897 55.8326 66.6251 55.9556C66.2863 56.3595 65.7346 56.5143 65.2351 56.3456C64.7851 56.2456 64.2951 56.1956 63.8451 56.1156C63.4181 56.0266 63.0046 55.882 62.6151 55.6856L60.2151 54.6856C59.0034 54.1614 57.7611 53.7105 56.4951 53.3356L56.5551 53.1656Z" fill="#231F20"/>
<path d="M78.9454 22.6458C78.4254 23.8158 77.9454 25.0058 77.4354 26.1958C76.9254 27.3858 76.4354 28.5658 75.9554 29.7758C75.6054 30.6458 75.3754 31.5658 75.0354 32.4458C73.8354 35.5458 72.6954 38.6858 71.7754 41.8758C71.3954 43.3558 71.0154 44.7358 70.7154 46.1658C70.5354 47.0758 70.3754 47.9958 70.2354 48.9058C70.0283 49.7833 69.8681 50.6713 69.7554 51.5658C69.7554 52.0058 69.5154 52.1758 69.0154 51.7058C68.3748 50.9403 67.9686 50.0063 67.8454 49.0158C67.7981 47.0099 67.9118 45.0035 68.1854 43.0158C68.5603 41.0727 69.092 39.1631 69.7754 37.3058C70.5854 35.0658 71.0454 32.6558 71.7754 30.3058C72.5854 27.7758 73.4354 25.3058 74.4554 22.7958C75.0654 21.2858 75.7154 19.7958 76.3554 18.2758C77.3554 15.9958 78.4354 13.7558 79.4654 11.5158C79.8854 10.6458 80.2354 9.75582 80.6154 8.86582C80.9612 7.95889 81.3757 7.07967 81.8554 6.23582C82.0754 5.86582 82.2454 5.47582 82.5054 5.11582C83.4454 3.78582 84.0654 3.55582 85.0154 3.92582C85.2383 3.996 85.4556 4.08291 85.6654 4.18582C86.3254 4.57582 86.4154 5.44582 86.0254 6.43582C85.4354 7.92582 85.0254 9.52582 84.2354 10.9958L82.1154 15.5958C81.1154 17.9158 80.0054 20.2658 79.0554 22.6658L78.9454 22.6458Z" fill="#231F20"/>
<path d="M46.4652 22.5658L30.8652 28.9658C28.9652 29.7458 27.1352 30.6558 25.2352 31.4358L15.2352 35.5558L14.0152 36.0758L13.3952 36.3558L12.9052 36.5758L11.8152 36.9958C11.0652 37.3058 10.2252 37.6558 9.3452 38.0658C9.1452 38.1558 8.9552 38.2458 8.7752 38.3458C8.67953 38.3916 8.59177 38.4524 8.5152 38.5258C8.5752 38.5258 8.6852 38.5258 8.7752 38.5258L9.9252 38.6058C10.7252 38.6558 11.5452 38.7058 12.2852 38.7858C12.5252 38.7858 12.7652 38.8358 12.9952 38.8758C13.0652 38.8758 13.0752 38.8758 13.2052 38.8758L13.6052 38.9658L14.3952 39.1458C15.4625 39.3988 16.5089 39.7331 17.5252 40.1458C18.5944 40.5721 19.603 41.1369 20.5252 41.8258C21.496 42.5856 22.2368 43.5999 22.6652 44.7558C22.9352 45.4758 22.8152 45.8558 22.5952 45.9258C22.3752 45.9958 21.9552 45.7958 21.3552 45.5858C20.5978 45.3532 19.807 45.2484 19.0152 45.2758C18.1234 45.1907 17.2423 45.0165 16.3852 44.7558C15.5266 44.4885 14.6514 44.2781 13.7652 44.1258C13.3052 44.0458 12.8452 43.9658 12.3752 43.9058L12.0152 43.8458L11.2352 43.7358C10.6952 43.7358 10.1252 43.6758 9.5652 43.6458L7.9152 43.4458L6.2052 43.2758L4.4352 43.1358L3.5452 43.0758C3.27551 43.0662 3.00747 43.0294 2.7452 42.9658C2.04605 42.8273 1.38461 42.5409 0.8052 42.1258C0.470586 41.9297 0.221027 41.6159 0.1052 41.2458C0.0381803 41.0085 0.0078298 40.7623 0.0152 40.5158C0.0313188 40.3763 0.0313188 40.2353 0.0152 40.0958C-0.00506667 39.9599 -0.00506667 39.8217 0.0152 39.6858C0.117253 38.9266 0.469074 38.223 1.0152 37.6858C1.55145 37.1138 2.18883 36.646 2.8952 36.3058L3.2152 36.1358L3.7552 35.9958C4.0952 35.9058 4.4952 35.8158 4.7552 35.7258L6.2152 35.1058L9.0252 33.9458L10.3852 33.4458L11.0152 33.1858L11.3052 33.0758L11.4852 33.0058C16.1852 31.1458 20.8252 28.7058 25.4852 26.5858L41.0752 19.6558L50.6052 15.3558C55.3852 13.1558 60.2752 11.1358 64.9652 8.8158C66.7852 7.9258 68.5552 6.9658 70.3052 5.9858L75.5952 3.2058C76.3752 2.7958 77.1152 2.3658 77.9052 1.9658C78.6952 1.5658 79.2352 1.3058 79.7452 1.0758C80.187 0.906106 80.6418 0.772339 81.1052 0.675796C81.6842 0.541336 82.2862 0.541336 82.8652 0.675796C83.0902 0.717301 83.3172 0.747339 83.5452 0.765796C83.8852 0.815796 83.8652 1.2658 83.4852 1.8958C82.9293 2.74625 82.256 3.51384 81.4852 4.1758C78.4852 6.4258 75.4052 8.5058 72.1852 10.5058C68.8852 12.3358 65.4852 14.0458 62.0552 15.7258C59.5052 16.9558 57.0152 18.2058 54.3552 19.3558L46.5252 22.6958L46.4652 22.5658Z" fill="#231F20"/>
</svg>
