<svg width="117" height="104" viewBox="0 0 117 104" fill="none" xmlns="http://www.w3.org/2000/svg">
<path fill-rule="evenodd" clip-rule="evenodd" d="M82.3101 1.34194C82.5081 0.703942 83.1851 0.346942 83.8231 0.544942C86.9831 1.52294 81.2821 4.66094 82.3101 1.34194Z" stroke="#231F20"/>
<path fill-rule="evenodd" clip-rule="evenodd" d="M113.912 22.0675C114.109 21.4295 114.787 21.0735 115.424 21.2705C118.585 22.2485 112.883 25.3875 113.912 22.0675Z" stroke="#231F20"/>
<path fill-rule="evenodd" clip-rule="evenodd" d="M53.2441 16.1466C53.4421 15.5086 54.1191 15.1516 54.7571 15.3496C57.9171 16.3276 52.2161 19.4666 53.2441 16.1466Z" stroke="#231F20"/>
<path fill-rule="evenodd" clip-rule="evenodd" d="M21.4727 74.4669C21.4747 72.2519 21.4677 70.0329 21.4297 67.8109C21.4167 66.9999 21.3287 66.1929 21.3227 65.3819C21.2997 62.5199 21.3067 59.6529 21.3317 56.7849C21.3347 55.5129 21.2857 54.2359 21.2267 52.9749L21.1127 50.5399C21.1227 49.7269 21.2007 48.9119 21.3307 48.1019C21.4187 47.5959 21.8457 47.6659 22.3117 48.0909C22.7717 48.5149 23.3247 49.2919 23.4427 50.2139C23.6107 53.4879 23.7077 56.7619 23.5887 60.0909C23.4937 62.0819 23.7257 64.1429 23.7967 66.1769L23.9747 72.8999C24.0097 74.2809 24.0177 75.6639 24.0247 77.0459C24.0407 79.1389 24.0007 81.2429 24.0367 83.3209C24.0877 84.9319 24.1377 86.5239 24.1877 88.1239C24.1967 88.4769 24.2187 88.8219 24.1827 89.1769C24.0767 90.4929 23.9007 90.9049 23.4337 91.1679C23.3277 91.2269 23.2227 91.3069 23.1207 91.3399C22.7797 91.4509 22.4957 90.9039 22.3357 89.9459C21.8807 87.1029 21.7187 84.1409 21.6207 81.1529C21.5507 78.9309 21.4797 76.6999 21.4087 74.4729L21.4727 74.4669Z" fill="#231F20"/>
<path fill-rule="evenodd" clip-rule="evenodd" d="M39.3096 93.6403C41.3626 94.3473 43.4446 95.0133 45.5406 95.6393C46.3046 95.8713 47.0956 96.0093 47.8596 96.2433C50.5586 97.0713 53.2526 97.9683 55.9626 98.8333C57.1646 99.2083 58.3876 99.5683 59.5966 99.9203C60.3696 100.187 61.1596 100.362 61.9276 100.7C62.3116 100.862 62.6956 101.023 63.0646 101.215C63.4306 101.438 63.7836 101.705 64.1196 101.967C64.5406 102.306 64.2036 102.624 63.5936 102.831C63.2896 102.936 62.9196 103.018 62.5456 103.047C62.1856 103.069 61.7226 103.088 61.3316 102.932C58.4336 101.945 55.2546 101.243 52.1536 100.199C50.2926 99.5773 48.2606 99.2793 46.3126 98.7673C44.1686 98.2153 42.0286 97.6153 39.8926 96.9943L35.9596 95.7933C33.9766 95.1683 32.0066 94.4653 30.0476 93.7863C29.2896 93.5103 28.5206 93.2803 27.7456 93.0623C26.9776 92.8203 26.2116 92.5583 25.4416 92.2903C25.1026 92.1733 24.7576 92.0843 24.4336 91.9133C23.2316 91.2843 23.0036 90.8063 23.1556 90.0033C23.1916 89.8163 23.2096 89.6223 23.2696 89.4533C23.4706 88.8853 24.1956 88.6883 25.1196 88.8693C26.4346 89.2283 27.7726 89.6313 29.0896 90.0983C30.4396 90.5263 31.7796 91.0083 33.1566 91.4703C35.1756 92.1983 37.2396 92.9153 39.3276 93.5653L39.3096 93.6403Z" fill="#231F20"/>
<path fill-rule="evenodd" clip-rule="evenodd" d="M85.1685 96.7213C90.6105 95.1353 96.0195 93.2813 101.406 91.3913C103.372 90.7003 105.309 89.9303 107.268 89.2243L112.439 87.3303L112.843 87.1833C112.904 87.1543 112.998 87.1473 113.036 87.0973C113.042 87.0273 113.053 86.9573 113.052 86.8823L113.075 86.3883L113.213 83.6313L113.764 72.6053C113.921 69.3433 114.021 66.0613 114.114 62.8233C114.229 58.6613 114.301 54.4833 114.6 50.3273C114.694 49.0323 115.001 49.2113 115.301 50.3143C115.597 51.4173 115.915 53.4463 115.912 55.8453C115.876 64.3513 115.813 72.8523 115.377 81.4183C115.309 82.6993 115.257 83.9933 115.215 85.2953C115.194 86.0413 115.173 86.7893 115.151 87.5393C115.161 87.8263 115.043 88.0263 114.995 88.2743L114.947 88.4513L114.944 88.4623L114.942 88.4683C114.971 88.4903 114.687 88.2913 114.806 88.3773L114.793 88.3923L114.765 88.4223L114.711 88.4833L114.478 88.7463L114.354 88.8853L114.167 88.9693L113.799 89.1283L113.235 89.3623C110.791 90.3583 108.335 91.3513 105.88 92.2873C100.483 94.3493 95.0355 96.2823 89.5265 98.0703C86.1275 99.1533 82.7285 100.216 79.1785 100.974C78.7625 101.058 78.3445 101.138 77.9155 101.201C77.4865 101.263 77.1005 101.328 76.4245 101.346C75.8225 101.364 75.2345 101.298 74.7625 101.024C74.5225 100.897 74.3145 100.661 74.2505 100.413C74.1655 100.184 74.1635 99.8663 74.1225 99.5953C74.1115 97.6253 74.1015 95.6593 74.0905 93.6973C74.0965 91.8343 74.1025 89.9763 74.1085 88.1263C74.1175 83.9723 74.0225 79.8973 74.1245 75.7893C74.1475 74.8853 74.1405 73.9993 74.1845 73.0873C74.4245 69.7123 74.7155 68.6493 75.2215 67.9483C75.3375 67.7883 75.4525 67.5763 75.5575 67.4853C75.8965 67.1783 76.1705 68.5693 76.3295 71.0433C76.4635 72.8793 76.5005 74.7333 76.5475 76.6063C76.5835 78.4793 76.6635 80.3713 76.6665 82.2733C76.7015 86.0783 76.7375 89.9353 76.7735 93.8013C76.7805 95.4013 76.7865 97.0043 76.7935 98.6143C76.7995 98.6243 76.7715 98.6403 76.8395 98.6383C77.6795 98.5543 78.6115 98.3763 79.5355 98.1683C81.3925 97.7493 83.2725 97.2213 85.1425 96.6613L85.1685 96.7213Z" fill="#231F20"/>
<path fill-rule="evenodd" clip-rule="evenodd" d="M40.6675 51.3048C43.2405 52.1608 45.8325 52.9848 48.4405 53.7578C49.3935 54.0388 50.3665 54.2318 51.3145 54.5298C54.6605 55.5688 58.0185 56.5858 61.4005 57.5098C62.8965 57.9428 64.4185 58.3018 65.9205 58.6528C66.8865 58.8728 67.8565 59.0948 68.8245 59.3158C69.7875 59.5678 70.7355 59.8718 71.6845 60.2078C72.2965 60.4408 72.1215 60.6548 71.5515 60.8368C70.9785 61.0128 69.9465 61.2348 68.7975 61.1368C64.7785 60.5448 60.7625 59.8928 56.8455 58.6628C54.4985 57.9528 51.9825 57.5158 49.5515 56.9038C46.8875 56.2008 44.2345 55.4428 41.5885 54.6588L36.7135 53.1698C34.2525 52.4128 31.8135 51.5428 29.3825 50.7218C27.4885 50.0868 25.5835 49.5738 23.7205 48.7418C23.3105 48.5458 22.8935 48.4128 22.4885 48.1678C20.9415 47.3608 20.8455 46.3518 20.9355 45.7998C20.9625 45.6578 20.9685 45.5098 21.0145 45.4098C21.0915 45.2408 21.3085 45.2248 21.6385 45.2528C21.9375 45.3028 22.4675 45.2728 22.9675 45.4408C24.4675 45.9758 26.1175 46.5098 27.8085 47.0068C29.4975 47.5678 31.2045 48.1358 32.9175 48.7048C35.4905 49.5228 38.0675 50.4398 40.6845 51.2318L40.6675 51.3048Z" fill="#231F20"/>
<path fill-rule="evenodd" clip-rule="evenodd" d="M110.787 45.2589C105.343 43.1089 99.7521 41.1369 94.1861 39.1849L88.0591 37.1269L77.2791 33.4409L71.8751 31.6449L71.0311 31.3719C70.6821 31.2549 70.3131 31.1549 69.9861 31.0259L70.0851 29.0339C70.1381 28.0929 70.1691 27.1519 70.1851 26.2109C70.2461 22.8679 69.9891 19.5119 69.6111 16.1969C69.1361 11.9399 68.4801 7.63694 68.4621 3.31494C68.4471 1.96794 68.8501 2.12894 69.3371 3.23194C69.8201 4.33594 70.4381 6.36594 70.6881 8.81394C71.1411 13.1499 71.7781 17.5099 71.9851 21.9799C72.0901 24.2089 72.0871 26.4499 71.9821 28.6829L71.9331 29.5159C71.9241 29.5519 71.9141 29.5929 71.9091 29.6349C71.8851 29.6909 71.9581 29.6789 71.9841 29.7069C72.0161 29.7179 71.9961 29.7169 72.0721 29.7439L72.4661 29.8739L75.6141 30.9359C80.6251 32.6589 85.9041 34.2499 91.0461 35.9589C96.6981 37.8449 102.338 39.7699 107.952 41.8019C109.304 42.2949 110.643 42.7899 111.999 43.3229C112.901 43.6979 114.12 44.1119 114.685 44.6339C114.949 44.8759 115.257 45.1529 115.04 45.4819L114.335 46.3539C113.405 47.0449 112.255 47.7049 111.681 48.0449C106.762 50.7859 101.605 52.9509 96.5041 55.0809C92.5341 56.7229 88.6591 58.3779 84.6511 59.8479C83.7701 60.1739 82.9111 60.5079 82.0001 60.7939C78.6281 61.8389 77.3941 61.8979 76.5031 61.2769C76.3101 61.1379 76.0781 61.0039 75.9811 60.8559C75.7161 60.3269 76.8501 59.8849 79.2211 59.0539C82.7251 57.8499 86.3411 56.4739 89.9851 55.0609C93.6311 53.6409 97.3181 52.1649 100.961 50.5909C101.957 50.1619 102.953 49.7299 103.934 49.2749C104.926 48.8339 105.906 48.3749 106.873 47.8979C107.856 47.4399 108.797 46.9339 109.749 46.4379C110.234 46.1979 110.673 45.9179 111.133 45.6559L111.221 45.6059C111.227 45.6019 111.237 45.5989 111.237 45.5989C111.25 45.5979 111.254 45.5909 111.263 45.5859C111.305 45.5739 111.344 45.5489 111.295 45.5329L111.251 45.5079C111.251 45.5079 111.241 45.4979 110.774 45.3149L110.787 45.2589Z" fill="#231F20"/>
<path fill-rule="evenodd" clip-rule="evenodd" d="M28.6597 44.6071C27.4927 44.9921 26.3267 45.3791 25.1127 45.7331L24.6517 45.8631L24.0457 46.0221C23.5037 46.1581 22.9497 46.2711 22.4557 46.2621C21.9627 46.2381 21.5567 46.1391 21.2007 45.8121C21.0277 45.6761 21.0297 45.4191 20.9447 45.2211L20.7507 44.5881C20.7767 42.5421 20.8007 41.7281 20.8387 40.5311L20.9037 36.6171C21.0587 32.0281 21.1507 27.4501 20.8777 22.8791C20.7657 20.8521 20.5477 18.8201 20.2867 16.8231C19.9227 14.2591 19.4457 11.7081 19.0997 9.13514C19.0007 8.33114 19.3597 8.36214 19.8467 8.96314C20.3207 9.56514 20.9887 10.7331 21.2887 12.2201C21.8527 14.8461 22.2887 17.5031 22.5857 20.1791C22.8657 22.8571 22.9757 25.5551 22.9687 28.2571C22.9497 31.4871 23.0747 34.8391 23.0407 38.1231L22.9577 43.4601L22.9467 43.7151C22.9177 43.8091 22.9817 43.8951 23.0737 43.8881C23.2377 43.9021 23.4037 43.8661 23.5737 43.8331C23.6507 43.8241 24.1367 43.6881 24.5107 43.5741L25.6827 43.2041C27.7727 42.5171 29.8737 41.7761 31.9737 41.0531C35.1577 39.9501 38.3907 38.9231 41.5967 37.9361C44.0847 37.1581 46.5227 36.3511 49.0487 35.7501C49.6047 35.6161 50.1457 35.4691 50.7117 35.3581C51.7567 35.1201 52.4857 35.1871 52.9897 35.2151C53.4987 35.2701 53.8047 35.3941 54.0617 35.5921C54.1797 35.6821 54.3277 35.7631 54.4007 35.8511C54.6437 36.1431 53.8337 36.5571 52.3847 37.1061C50.2187 37.8181 47.9847 38.4171 45.7417 39.1441C43.4827 39.7981 41.1937 40.4891 38.9057 41.2211C35.5047 42.3051 32.1047 43.4671 28.6827 44.6591L28.6597 44.6071Z" fill="#231F20"/>
<path fill-rule="evenodd" clip-rule="evenodd" d="M31.8647 4.03434C33.5377 3.72734 35.2127 3.41234 36.8827 3.06534C37.4917 2.93734 38.0857 2.74734 38.6957 2.62534C40.8557 2.21034 43.0197 1.79334 45.1777 1.37834C46.1367 1.18634 47.0847 0.932341 48.0257 0.691341C49.2257 0.353341 50.4477 0.0433405 51.7247 0.000340511C52.1217 -0.0126595 52.1317 0.34834 51.8827 0.78034C51.6307 1.21334 51.1427 1.72334 50.4687 1.95334C48.0747 2.70834 45.6147 3.30134 43.0897 3.74834C41.5767 4.00734 40.0647 4.52234 38.5357 4.87034C36.8567 5.26134 35.1687 5.62734 33.4777 5.97934L30.3527 6.62134C28.7757 6.94734 27.1777 7.21734 25.6117 7.55934C24.3887 7.80034 23.2107 8.16234 21.9877 8.41034C21.7187 8.46734 21.4617 8.55834 21.1797 8.55234C20.1437 8.56934 19.8017 8.42434 19.5457 7.98034C19.4867 7.87934 19.4137 7.78234 19.3777 7.68334C19.2547 7.35534 19.6357 7.00134 20.3267 6.70234C21.3417 6.20534 22.4177 5.99234 23.5007 5.69534C24.5857 5.41034 25.6977 5.17734 26.8217 4.96634C28.4927 4.63834 30.1737 4.30834 31.8497 3.97934L31.8647 4.03434Z" fill="#231F20"/>
<path fill-rule="evenodd" clip-rule="evenodd" d="M22.6543 81.1413C22.0373 81.2893 6.86128 80.1003 0.68528 86.6793C-6.12472 93.9323 39.5353 100.489 61.6753 101.475L23.1903 89.5503L22.6543 81.1413Z" fill="#231F20"/>
<path fill-rule="evenodd" clip-rule="evenodd" d="M94.7676 30.004C93.8796 31.812 93.0356 33.652 92.2616 35.525C91.9676 36.204 91.7666 36.917 91.4916 37.603C90.5056 40.018 89.5756 42.463 88.7356 44.94C88.3756 46.042 88.0806 47.169 87.8386 48.288C87.5316 49.712 87.3016 51.22 86.9946 52.511C86.8976 52.903 86.4296 52.928 85.9776 52.513C85.7606 52.318 85.5146 51.945 85.3956 51.581C85.2686 51.209 85.2046 50.773 85.2606 50.319C85.7576 47.218 86.5766 44.26 87.7136 41.372C88.4156 39.656 88.9136 37.799 89.5716 36.026C90.3026 34.082 91.0986 32.16 91.9406 30.259C92.4516 29.086 93.0266 27.938 93.5576 26.775L94.8806 24.177C95.3536 23.326 95.8296 22.478 96.2696 21.617C97.0326 20.314 97.6276 18.94 98.4816 17.653C98.6656 17.368 98.8116 17.069 99.0396 16.806C99.9076 15.841 100.332 15.668 100.988 15.978C101.138 16.048 101.298 16.106 101.428 16.196C101.863 16.504 101.843 17.181 101.424 17.894C100.239 20.062 98.8046 22.226 97.5606 24.631C96.6086 26.383 95.6766 28.184 94.8266 30.026L94.7676 30.004Z" fill="#231F20"/>
<path fill-rule="evenodd" clip-rule="evenodd" d="M104.07 12.2013C104.065 12.1533 104.044 12.1133 104.002 12.0783C103.98 12.0633 103.955 12.0533 103.927 12.0463C103.908 12.0373 103.858 12.0383 103.707 12.0693C103.121 12.2123 102.467 12.4683 101.865 12.7653C101.416 12.9823 101.017 13.3023 100.578 13.5643C99.0323 14.5163 97.5443 15.7173 96.0863 16.9833C95.4373 17.5363 94.7943 18.1473 94.1813 18.7293C93.3963 19.4883 92.7213 20.2683 91.9403 20.9453C91.7003 21.1563 91.3423 20.8823 91.1473 20.3713C90.9513 19.8683 90.9493 19.0933 91.3863 18.5613C92.1583 17.6263 92.9803 16.8463 93.7483 16.0923C94.5253 15.3133 95.4163 14.6023 96.3493 13.9153C97.4723 13.1083 98.4993 12.0673 99.7363 11.2683C100.415 10.8343 101.137 10.4433 101.902 10.1263C102.288 9.96434 102.648 9.82634 103.105 9.70234C103.597 9.55734 104.269 9.49934 104.806 9.68134C105.494 9.90034 106.017 10.4863 106.324 11.0643C106.622 11.6553 106.703 12.2013 106.77 12.7203C106.859 13.5063 106.827 14.2433 106.81 14.9543C106.801 15.3073 106.792 15.6553 106.804 15.9743C106.818 16.3043 106.844 16.6743 106.873 17.0143C106.967 18.0923 107.241 19.1163 107.553 20.0573C107.62 20.2653 107.72 20.4563 107.784 20.6583C108.048 21.3893 107.901 21.6633 107.282 22.1113C107.139 22.2123 107.003 22.3293 106.857 22.4193C106.375 22.7273 105.752 22.5583 105.335 21.8973C104.783 20.9083 104.499 19.8123 104.346 18.7563C104.27 18.2263 104.224 17.7013 104.193 17.1883L104.153 16.4283C104.141 16.2063 104.132 15.8343 104.137 15.5763C104.151 14.7673 104.199 14.0693 104.187 13.4323C104.192 12.8093 104.049 12.2693 104.022 12.2433L104.07 12.2013Z" fill="#231F20"/>
<path fill-rule="evenodd" clip-rule="evenodd" d="M66.9966 40.5963C67.3636 41.8843 67.6836 43.1833 67.9946 44.4813C68.1076 44.9543 68.2656 45.4153 68.3646 45.8923C68.7036 47.5773 68.9386 49.2803 69.1216 50.9833C69.2016 51.7403 69.3246 52.4923 69.4326 53.2403C69.5626 54.1993 69.7596 55.1743 69.5676 56.1673C69.5136 56.4753 69.0936 56.4263 68.6706 56.1823C68.2496 55.9363 67.8186 55.5183 67.7476 54.9983C67.5256 53.1483 67.1986 51.2843 67.0176 49.3583C66.9136 48.2023 66.5336 47.0543 66.2356 45.9123C65.9216 44.6513 65.5756 43.3933 65.1976 42.1443C64.9656 41.3753 64.7116 40.6113 64.4496 39.8513C64.0326 38.7073 63.6226 37.5503 63.0946 36.4603C62.6806 35.6153 62.1366 34.8513 61.6296 34.0703C61.5146 33.8993 61.3936 33.7363 61.2956 33.5553C60.9376 32.8833 60.9756 32.5923 61.4446 32.1633C61.5516 32.0653 61.6516 31.9573 61.7656 31.8733C62.1476 31.5903 62.6386 31.6913 63.0386 32.1323C63.6486 32.7773 64.1396 33.5163 64.5566 34.3063C64.9946 35.0863 65.3516 35.9183 65.7006 36.7553C66.2096 38.0033 66.6346 39.2903 67.0476 40.5753L66.9966 40.5963Z" fill="#231F20"/>
<path fill-rule="evenodd" clip-rule="evenodd" d="M57.8921 26.4479C58.1051 25.6229 58.4661 24.9559 58.9571 24.4919C59.1741 24.3109 59.4111 24.1599 59.6961 24.0779C59.9911 23.9939 60.2791 24.0159 60.5361 24.0899C61.0531 24.2279 61.5801 24.6119 62.0411 25.1449C62.2911 25.4319 62.5921 25.7789 62.7881 26.0279C62.9391 26.2129 63.0841 26.3989 63.2121 26.5939C64.1091 27.9709 64.9001 29.3439 65.8281 30.6169C66.2311 31.1869 66.6901 31.7129 67.1731 32.1879C67.8051 32.7939 68.4871 33.2939 69.0931 33.8719C69.2791 34.0539 69.0821 34.3989 68.6661 34.6249C68.2511 34.8569 67.5911 34.9299 67.1001 34.5989C65.4131 33.4059 64.1601 31.9009 63.2351 30.2299C62.6721 29.2399 61.9071 28.3519 61.2461 27.4709L61.1301 27.3189C61.1011 27.2829 61.1031 27.2739 61.0861 27.2519L61.0061 27.1309C60.9491 27.0499 60.8881 26.9629 60.8131 26.8789C60.7391 26.7979 60.6541 26.7049 60.5411 26.6659C60.4201 26.6249 60.3321 26.7179 60.2661 26.7949C60.2171 26.8489 60.1771 26.9149 60.1431 26.9849C60.0721 27.1319 60.0211 27.2999 59.9821 27.4839C59.9361 27.7189 59.9031 28.1689 59.8851 28.5199C59.8531 29.0869 59.8421 29.6919 59.7571 30.3299C59.6831 30.9059 59.6201 31.4909 59.5711 32.0809C59.4931 32.9969 59.5341 33.9329 59.4021 34.9039C59.3751 35.1169 59.3621 35.3349 59.3091 35.5489C59.1151 36.3509 58.7611 36.5159 58.1121 36.3879C57.9601 36.3579 57.8061 36.3369 57.6631 36.2909C57.1801 36.1249 56.9241 35.6939 56.9171 35.2009C56.9971 33.7699 57.1501 32.2769 57.3571 30.5929L57.4701 29.7299L57.5401 28.8499L57.6211 27.8569L57.6851 27.3259C57.7171 27.0189 57.7901 26.7259 57.8381 26.4289L57.8921 26.4479Z" fill="#231F20"/>
<path fill-rule="evenodd" clip-rule="evenodd" d="M41.0903 42.132C39.6143 42.508 38.1423 42.904 36.6733 43.311L35.0743 43.787C33.1813 44.301 31.2853 44.816 29.4003 45.37C28.5653 45.631 27.7323 45.891 26.9043 46.151C25.8313 46.481 24.8153 46.894 23.6123 46.992C23.2153 47.007 23.2983 46.778 23.5453 46.511C23.7783 46.259 24.2123 45.884 24.8033 45.674C25.8653 45.295 26.9233 44.917 27.9893 44.536C29.0663 44.179 30.1613 43.863 31.2703 43.572C32.5983 43.228 33.9313 42.716 35.2703 42.301C36.7403 41.84 38.2283 41.429 39.7133 41.014L42.4603 40.264C43.8453 39.88 45.2493 39.542 46.6183 39.139C47.6853 38.838 48.7093 38.454 49.7663 38.159C49.9993 38.092 50.2233 38.014 50.4603 37.955C51.3443 37.768 51.6693 37.889 51.9203 38.109C51.9783 38.163 52.0493 38.211 52.0883 38.265C52.2183 38.442 51.9083 38.722 51.3153 39.063C50.4183 39.498 49.4633 39.793 48.5053 40.138C47.5333 40.428 46.5423 40.698 45.5483 40.972C44.0703 41.369 42.5853 41.768 41.1023 42.167L41.0903 42.132Z" fill="#231F20"/>
<path fill-rule="evenodd" clip-rule="evenodd" d="M94.1812 55.4708C95.9272 54.9448 97.6692 54.4018 99.3932 53.8088L101.261 53.1138C103.475 52.3448 105.674 51.5308 107.818 50.5978C108.771 50.1858 109.692 49.6998 110.585 49.1998C111.712 48.5298 112.802 47.7928 113.851 47.0958C114.191 46.8888 114.372 47.1268 114.31 47.5918C114.278 47.8248 114.185 48.1178 114.019 48.4318C113.848 48.7398 113.583 48.9988 113.258 49.2418C110.917 50.8618 108.405 51.9888 105.81 52.9578C104.252 53.5168 102.699 54.2488 101.123 54.8498C99.3902 55.5058 97.6432 56.1228 95.8892 56.7138L92.6452 57.7838C91.0042 58.3118 89.3572 58.8418 87.7282 59.3658C86.4702 59.7988 85.2622 60.3058 84.0302 60.7828C83.7592 60.8868 83.4962 61.0018 83.2192 61.0958C82.1872 61.4288 81.8182 61.3948 81.4502 60.9468C81.3672 60.8448 81.2662 60.7468 81.2042 60.6378C80.9932 60.2708 81.3232 59.8208 82.0452 59.4868C84.1912 58.5118 86.5362 57.7858 88.8952 57.0568C90.6472 56.5158 92.4082 55.9728 94.1642 55.4298L94.1812 55.4708Z" fill="#231F20"/>
<path fill-rule="evenodd" clip-rule="evenodd" d="M31.6924 5.46504C33.0124 5.22004 34.3324 4.96204 35.6494 4.68404C36.1284 4.56904 36.6014 4.45604 37.0804 4.34104C38.7774 3.99604 40.4804 3.65104 42.1754 3.30604C42.9274 3.14304 43.6744 2.94404 44.4104 2.74304C45.3534 2.47104 46.3034 2.21404 47.2854 2.09504C47.5914 2.06104 47.6074 2.28904 47.4154 2.58304C47.2234 2.87404 46.8284 3.24804 46.2934 3.42804C44.3894 4.05104 42.4464 4.52804 40.4594 4.91004C39.2694 5.13204 38.0694 5.51504 36.8634 5.79104C35.5394 6.09804 34.2084 6.38404 32.8764 6.66604L30.4144 7.17004C29.1684 7.41804 27.9184 7.66704 26.6824 7.91204C25.7214 8.10704 24.7914 8.37104 23.8374 8.57104C23.6274 8.61604 23.4254 8.68204 23.2074 8.68904C22.4024 8.73904 22.1344 8.66004 21.9294 8.38904C21.8814 8.32704 21.8234 8.26904 21.7934 8.20804C21.6924 8.00504 21.9884 7.76504 22.5384 7.54704C23.3484 7.18604 24.2054 7.01804 25.0684 6.79004C25.9324 6.57404 26.8164 6.38504 27.7054 6.22004C29.0274 5.95804 30.3574 5.69404 31.6824 5.43004L31.6924 5.46504Z" fill="#231F20"/>
</svg>
