<svg width="102" height="102" viewBox="0 0 102 102" fill="none" xmlns="http://www.w3.org/2000/svg">
<rect width="102" height="102" fill="white"/>
<path d="M43.48 93.7402C42.8731 93.7553 42.2671 93.6846 41.68 93.5302L40.87 93.3102C40.62 93.2102 40.4 93.0902 40.17 92.9802L39.51 92.6302C39.31 92.5002 39.13 92.3502 38.95 92.2102C38.5494 91.9236 38.1865 91.5876 37.87 91.2102C37.61 90.9102 37.31 90.6502 37.04 90.3602C36.8051 90.0391 36.5881 89.7053 36.39 89.3602C36.1319 88.7251 35.9994 88.0458 36 87.3602C36.0193 87.0191 36.0866 86.6825 36.2 86.3602C36.3244 86.0531 36.4715 85.7556 36.64 85.4702C37.4207 84.3864 38.5811 83.6365 39.89 83.3702C40.3578 83.2506 40.8318 83.1571 41.31 83.0902C41.7515 83.0384 42.1955 83.0117 42.64 83.0102C43.841 82.8996 45.0278 83.3369 45.87 84.2002C46.14 84.4902 45.63 85.0602 45.03 85.6002C44.43 86.1402 43.86 86.7202 43.54 86.7302C42.9491 86.7139 42.3583 86.7676 41.78 86.8902H41.57C41.5 86.8902 41.4 86.8902 41.41 86.8902C41.3714 86.859 41.3273 86.8353 41.28 86.8202C41.129 86.7544 40.9641 86.727 40.8 86.7402C40.5754 86.7343 40.386 86.9061 40.37 87.1302C40.3914 87.3208 40.4602 87.503 40.57 87.6602C40.6356 87.7688 40.7091 87.8724 40.79 87.9702C40.79 87.9702 40.9 88.0802 41 88.1502L41.27 88.3502C41.4337 88.4823 41.6156 88.59 41.81 88.6702C41.9679 88.7622 42.1404 88.8265 42.32 88.8602C42.6614 88.9398 43.0204 88.8823 43.32 88.7002C43.528 88.57 43.6722 88.3589 43.7178 88.1177C43.7633 87.8766 43.7062 87.6274 43.56 87.4302C43.1326 87.0832 42.5892 86.9116 42.04 86.9502C41.9038 86.9657 41.7662 86.9657 41.63 86.9502C41.15 86.7202 41.15 86.2402 41.42 84.8402L41.6 83.8402C41.6971 82.8955 42.3578 82.1043 43.27 81.8402C43.5944 81.746 43.934 81.7155 44.27 81.7502C44.6071 81.801 44.941 81.8711 45.27 81.9602C45.9908 82.172 46.6681 82.5107 47.27 82.9602C47.5923 83.2478 47.8932 83.5586 48.17 83.8902C48.4883 84.2339 48.7333 84.6388 48.89 85.0802C48.99 85.3102 49.08 85.5302 49.16 85.7602C49.24 85.9902 49.27 86.2602 49.32 86.5202C49.4171 87.0308 49.444 87.5523 49.4 88.0702C49.2766 89.6668 48.5294 91.1506 47.32 92.2002C46.2744 93.1763 44.9265 93.7656 43.5 93.8702L43.48 93.7402Z" fill="#231F20"/>
<path d="M63.2399 21.8199C63.6252 23.7958 63.7995 25.8071 63.7599 27.8199C63.7487 29.7564 63.5848 31.6891 63.2699 33.5999C63.0299 34.9799 62.8899 36.3599 62.5599 37.7099C61.3704 42.4008 59.8156 46.9915 57.9099 51.4399C57.0599 53.3899 56.2499 55.3699 55.3799 57.2899C54.2699 59.7499 53.2199 62.2899 51.3799 64.3699C50.8199 65.0199 50.3799 64.6099 50.1099 63.6499C49.9667 63.067 49.8895 62.4699 49.8799 61.8699C49.8452 61.5174 49.8452 61.1623 49.8799 60.8099C49.9523 60.4665 50.0596 60.1315 50.1999 59.8099C52.3099 54.9399 53.9699 49.9399 56.0699 44.9899C57.1734 41.9103 57.9477 38.7225 58.3799 35.4799C59.0722 32.0099 59.4073 28.4781 59.3799 24.9399C59.3358 23.8881 59.2087 22.8416 58.9999 21.8099C58.7948 20.8356 58.4584 19.8936 57.9999 19.0099C57.3349 17.7674 56.1766 16.8632 54.8099 16.5199C54.1469 16.38 53.4596 16.4075 52.8099 16.5999C52.128 16.817 51.4911 17.1558 50.9299 17.5999C49.0999 19.0999 47.9299 21.3999 46.9299 23.6899C46.7199 24.2099 46.5299 24.6899 46.3299 25.2399C46.0901 25.9653 45.7019 26.6328 45.1899 27.1999C45.0166 27.372 44.8132 27.511 44.5899 27.6099C44.3526 27.6857 44.1079 27.736 43.8599 27.7599C43.6199 27.7599 43.3899 27.8399 43.2099 27.8399C42.6499 27.8399 42.1499 26.7199 42.4699 25.0699C43.1184 22.5594 44.165 20.1691 45.5699 17.9899C46.3771 16.7623 47.3572 15.6576 48.4799 14.7099C49.8158 13.573 51.4579 12.8564 53.1999 12.6499C55.9404 12.448 58.6135 13.5618 60.3999 15.6499C61.879 17.4406 62.8894 19.5713 63.3399 21.8499L63.2399 21.8199Z" fill="#231F20"/>
<path d="M43.04 17.2C43.8184 15.2693 44.8654 13.4581 46.15 11.82C46.9611 10.8143 47.9386 9.95523 49.04 9.28C50.335 8.4724 51.8242 8.03011 53.35 8C54.7825 8.0084 56.1932 8.35081 57.47 9C58.5654 9.5611 59.5754 10.2749 60.47 11.12C60.9198 11.5003 61.3256 11.9296 61.68 12.4C62.0501 12.8499 62.3845 13.328 62.68 13.83L63.44 15.33C63.67 15.83 63.82 16.33 64 16.83C64.9115 19.574 65.3675 22.4487 65.35 25.34C65.1973 30.0258 64.4958 34.6775 63.26 39.2C62.113 43.5741 60.7037 47.8752 59.04 52.08C57.55 55.8 56.04 59.51 54.32 63.08C53.2477 65.4203 52.0424 67.6974 50.71 69.9C49.3742 72.2186 47.6015 74.2562 45.49 75.9C43.98 76.9 43.78 75.95 44.05 74.41C44.16 73.61 44.34 72.63 44.59 71.5C44.7086 70.9156 44.8588 70.3381 45.04 69.77C45.2678 69.1631 45.5419 68.5747 45.86 68.01C48.1595 63.6732 50.1641 59.1864 51.86 54.58C53.57 49.93 55.34 45.28 56.86 40.52C58.6506 34.8366 59.2964 28.8546 58.76 22.92C58.44 19.86 57.46 17.08 55.76 15.48C55.5397 15.2868 55.3058 15.1097 55.06 14.95C54.8397 14.7733 54.5978 14.6254 54.34 14.51C53.9871 14.3159 53.5927 14.2096 53.19 14.2C52.7405 14.236 52.3105 14.399 51.95 14.67C51.4306 15.0476 50.9691 15.4991 50.58 16.01C49.4459 17.5641 48.5306 19.2667 47.86 21.07C47.1293 23.003 46.5214 24.9803 46.04 26.99C44.5142 33.1778 43.6097 39.5025 43.34 45.87C43.1968 50.7495 43.3705 55.6331 43.86 60.49C43.98 61.55 44.09 62.58 44.21 63.65C44.33 64.72 44.36 65.45 44.38 66.14C44.3793 66.7175 44.3224 67.2935 44.21 67.86C44.1319 68.271 43.9866 68.6662 43.78 69.03C43.5612 69.3544 43.3025 69.65 43.01 69.91C42.75 70.14 42.52 70.44 42.3 70.6C41.65 71.12 40.1 69.6 39.36 66.6C37.58 57.6 37.6 48.11 38.5 38.6C38.86 35.06 39.37 31.52 39.99 27.94C40.6166 24.2519 41.6047 20.6345 42.94 17.14L43.04 17.2Z" fill="#231F20"/>
</svg>
